<svg width="16" xmlns="http://www.w3.org/2000/svg" height="16.14" id="screenshot-0e8c6e7d-f2c5-8081-8005-0cb53da27805" viewBox="0 0 16 16.14" xmlns:xlink="http://www.w3.org/1999/xlink" fill="none" version="1.1"><g xmlns:xlink="http://www.w3.org/1999/xlink" width="800px" xml:space="preserve" height="800px" id="shape-0e8c6e7d-f2c5-8081-8005-0cb53da27805" data-testid="Power" style="fill: rgb(0, 0, 0);" ry="0" rx="0" version="1.1"><g id="shape-0e8c6e7d-f2c5-8081-8005-0cb53da2d534" data-testid="base-background" style="display: none;"><g class="fills" id="fills-0e8c6e7d-f2c5-8081-8005-0cb53da2d534"><rect width="16" height="16.139999999999873" x="0" transform="matrix(1.000000, 0.000000, 0.000000, 1.000000, 0.000000, 0.000000)" style="fill: none;" ry="0" fill="none" rx="0" y="0"/></g></g><g id="shape-0e8c6e7d-f2c5-8081-8005-0cb53da2d535" data-testid="svg-g" rx="0" ry="0" style="fill: rgb(0, 0, 0);"><g id="shape-0e8c6e7d-f2c5-8081-8005-0cb53da31e01" data-testid="svg-path"><g class="fills" id="fills-0e8c6e7d-f2c5-8081-8005-0cb53da31e01"><path d="M10.634,1.262L10.634,3.310C12.482,4.272,13.749,6.215,13.749,8.460C13.749,11.662,11.176,14.259,8.002,14.259C4.827,14.259,2.252,11.662,2.252,8.460C2.252,6.402,3.320,4.597,4.922,3.568L4.922,1.440C2.253,2.633,0.388,5.325,0.388,8.461C0.388,12.702,3.796,16.140,8.000,16.140C12.206,16.140,15.613,12.702,15.613,8.461C15.612,5.153,13.536,2.345,10.634,1.262ZZ" style="fill: rgb(255, 255, 255); fill-opacity: 1;"/></g></g><g id="shape-0e8c6e7d-f2c5-8081-8005-0cb53da3463d" data-testid="svg-path"><g class="fills" id="fills-0e8c6e7d-f2c5-8081-8005-0cb53da3463d"><path d="M7.853,9.452C8.690,9.452,8.775,8.953,8.775,8.340L8.775,1.114C8.775,0.499,8.690,0.000,7.853,0.000C7.020,0.000,6.934,0.499,6.934,1.114L6.934,8.340C6.933,8.954,7.020,9.452,7.853,9.452ZZ" style="fill: rgb(255, 255, 255); fill-opacity: 1;"/></g></g></g></g></svg>